<svg width="0" height="0" class="hidden">
  <symbol fill="none" xmlns="http://www.w3.org/2000/svg" viewBox="0 0 24 24" id="menu-hamburger">
    <path d="M4 17H20M4 12H20M4 7H20" stroke="#000000" stroke-width="1.5" stroke-linecap="round" stroke-linejoin="round"></path>
  </symbol>
  <symbol fill="none" xmlns="http://www.w3.org/2000/svg" viewBox="0 0 22 28" id="user">
    <path fill-rule="evenodd" clip-rule="evenodd" d="M21.4532 22.2575C21.4532 26.6521 15.4265 27.1601 10.8945 27.1601L10.5702 27.1598C7.6828 27.1528 0.333191 26.9705 0.333191 22.2308C0.333191 17.9258 6.11766 17.3505 10.6152 17.3288L11.2188 17.3284C14.1061 17.3354 21.4532 17.5177 21.4532 22.2575ZM10.8945 19.3281C5.21319 19.3281 2.33319 20.3041 2.33319 22.2308C2.33319 24.1748 5.21319 25.1601 10.8945 25.1601C16.5745 25.1601 19.4532 24.1841 19.4532 22.2575C19.4532 20.3135 16.5745 19.3281 10.8945 19.3281ZM10.8945 0.66626C14.7985 0.66626 17.9732 3.84226 17.9732 7.74626C17.9732 11.6503 14.7985 14.8249 10.8945 14.8249H10.8519C6.95586 14.8129 3.79986 11.6356 3.81315 7.74226C3.81315 3.84226 6.98919 0.66626 10.8945 0.66626ZM10.8945 2.57026C8.03986 2.57026 5.71716 4.89159 5.71716 7.74626C5.70786 10.5916 8.01319 12.9116 10.8559 12.9223L10.8945 13.8743V12.9223C13.7479 12.9223 16.0692 10.5996 16.0692 7.74626C16.0692 4.89159 13.7479 2.57026 10.8945 2.57026Z" fill="white"></path>
  </symbol>
  <symbol fill="none" xmlns="http://www.w3.org/2000/svg" viewBox="0 0 26 26" id="user-plus">
    <path fill-rule="evenodd" clip-rule="evenodd" d="M10.3463 16.07L10.4951 16.07L10.8251 16.0709C13.6275 16.0859 20.1925 16.3407 20.1925 20.6712C20.1925 24.6864 14.8008 25.2229 10.6068 25.2431L9.86742 25.2428C7.065 25.2278 0.500015 24.9732 0.500015 20.6437C0.500015 16.5437 6.11876 16.07 10.3463 16.07ZM10.3463 17.945C5.05752 17.945 2.37502 18.8538 2.37502 20.6437C2.37502 22.4513 5.05752 23.3687 10.3463 23.3687C15.635 23.3687 18.3175 22.46 18.3175 20.6712C18.3175 18.8612 15.635 17.945 10.3463 17.945ZM22.0051 7.89838C22.5226 7.89838 22.9426 8.31838 22.9426 8.83588L22.9425 10.4037L24.5625 10.4047C25.08 10.4047 25.5 10.8248 25.5 11.3423C25.5 11.8598 25.08 12.2798 24.5625 12.2798L22.9425 12.2788L22.9426 13.8496C22.9426 14.3671 22.5226 14.7871 22.0051 14.7871C21.4876 14.7871 21.0676 14.3671 21.0676 13.8496L21.0675 12.2788L19.45 12.2798C18.9325 12.2798 18.5125 11.8598 18.5125 11.3423C18.5125 10.8248 18.9325 10.4047 19.45 10.4047L21.0675 10.4037L21.0676 8.83588C21.0676 8.31838 21.4876 7.89838 22.0051 7.89838ZM10.3463 0.5C14.0125 0.5 16.9938 3.4825 16.9938 7.1475C16.9938 10.8125 14.0125 13.795 10.3463 13.795H10.3075C8.53377 13.7887 6.87126 13.0925 5.62502 11.8375C4.37752 10.5812 3.69377 8.91375 3.69997 7.14375C3.69997 3.4825 6.68127 0.5 10.3463 0.5ZM10.3463 2.375C7.71626 2.375 5.57498 4.51625 5.57498 7.1475C5.57002 8.42125 6.06002 9.615 6.95377 10.5162C7.84877 11.4162 9.04127 11.915 10.3113 11.92L10.3463 12.8462V11.92C12.9775 11.92 15.1188 9.77875 15.1188 7.1475C15.1188 4.51625 12.9775 2.375 10.3463 2.375Z" fill="#024C80"></path>
  </symbol>
</svg>