<svg width="201" height="70" viewBox="0 0 201 70" fill="none" xmlns="http://www.w3.org/2000/svg">
<g filter="url(#filter0_ddd_1_321)">
<rect x="14" y="9" width="163" height="42" rx="10" fill="white"/>
<path d="M52.3857 23.5801H52.623C52.9219 23.5801 53.124 23.7617 53.2295 24.125V24.2568C53.2295 24.4971 52.8926 24.9629 52.2188 25.6543C50.9062 27.207 50.25 28.3818 50.25 29.1787V29.3809C50.3379 30.1777 50.6748 30.5762 51.2607 30.5762C51.7588 30.5762 52.0078 30.7783 52.0078 31.1826V31.3848C52.0078 31.748 51.7588 31.9531 51.2607 32C50.1299 32 49.3623 31.376 48.958 30.1279L48.8877 29.3809V29.2842C48.8877 27.8252 49.9629 25.959 52.1133 23.6855L52.3857 23.5801ZM55.1631 26.9463C55.9834 26.9463 57.2432 27.0459 58.9424 27.2451C60.3721 27.4854 61.0869 28.0537 61.0869 28.9502C61.0869 29.7236 60.5859 30.4121 59.584 31.0156C59.168 31.3203 58.3037 31.5547 56.9912 31.7188C56.4111 31.8125 55.8018 31.8594 55.1631 31.8594C54.5244 31.8418 54.2051 31.8213 54.2051 31.7979C53.3438 31.9736 52.415 32.041 51.4189 32C50.9912 31.918 50.7568 31.6895 50.7158 31.3145C50.6689 30.9336 50.8975 30.6992 51.4014 30.6113C51.7646 30.6055 52.0312 30.5938 52.2012 30.5762C52.1426 30.4883 52.1133 30.4004 52.1133 30.3125C52.1133 29.6738 52.4883 28.9854 53.2383 28.2471C53.6953 27.8311 54.1523 27.5439 54.6094 27.3857C54.7383 27.0928 54.9229 26.9463 55.1631 26.9463ZM57.835 28.5107C57.876 28.5752 57.8965 28.6484 57.8965 28.7305C57.8965 29.1406 57.6357 29.6738 57.1143 30.3301C57.7646 30.2539 58.3066 30.1221 58.7402 29.9346C59.3965 29.5479 59.7246 29.2139 59.7246 28.9326C59.7246 28.8154 59.2822 28.6865 58.3975 28.5459L57.835 28.4844V28.5107ZM53.4404 30.4355C53.4404 30.5703 53.5488 30.6377 53.7656 30.6377C54.4453 30.6377 55.207 30.2275 56.0508 29.4072C56.373 29.0439 56.5342 28.8096 56.5342 28.7041C56.3936 28.5752 56.1533 28.5107 55.8135 28.5107C54.9229 28.5107 54.1846 28.9912 53.5986 29.9521C53.4932 30.1514 53.4404 30.3125 53.4404 30.4355ZM68.6807 27.7109C69.7236 27.7109 70.4062 28.0918 70.7285 28.8535C70.8164 29.082 70.8838 29.5596 70.9307 30.2861C70.9658 30.4795 71.0537 30.5762 71.1943 30.5762C71.5752 30.7344 71.7656 30.9482 71.7656 31.2178V31.3496C71.7656 31.7129 71.5518 31.9473 71.124 32.0527H70.623C70.1484 32.0527 69.8379 31.877 69.6914 31.5254C69.5566 31.3613 69.4482 30.6992 69.3662 29.5391C69.2783 29.1992 69.1084 29.0293 68.8564 29.0293L68.7246 29.0117H68.6104C67.6904 29.0117 66.5801 29.7236 65.2793 31.1475C64.8281 31.7217 64.5645 32.1465 64.4883 32.4219H64.5146L64.8223 32.3779H64.8838C65.3584 32.4482 65.5957 32.6768 65.5957 33.0635L65.6133 33.0898V33.1074C65.6133 33.6641 65.1738 33.9424 64.2949 33.9424C63.5977 33.9424 63.1641 33.6436 62.9941 33.0459L62.9678 32.8174V32.624C62.9678 31.8037 63.7529 30.6787 65.3232 29.249C66.5713 28.2236 67.6904 27.7109 68.6807 27.7109ZM75.0088 27.0166H75.0527C75.4277 27.0166 75.7383 27.2012 75.9844 27.5703C76.2363 27.9395 76.3506 28.4756 76.3271 29.1787C76.3096 29.876 76.1162 30.5205 75.7471 31.1123C75.3779 31.7041 74.7832 32.0088 73.9629 32.0264C73.2363 31.9678 72.7354 31.6689 72.46 31.1299C71.9209 31.7744 71.4258 32.0615 70.9746 31.9912C70.6055 31.8916 70.415 31.6836 70.4033 31.3672C70.3857 31.0449 70.4707 30.8252 70.6582 30.708C70.8457 30.585 71.0479 30.5117 71.2646 30.4883C71.4873 30.459 71.7305 30.2803 71.9941 29.9521C72.2578 29.624 72.668 29.0527 73.2246 28.2383C73.7812 27.4238 74.376 27.0166 75.0088 27.0166ZM73.8838 30.708C74.2178 30.7959 74.543 30.6904 74.8594 30.3916C75.1816 30.0869 75.3311 29.7441 75.3076 29.3633C75.29 28.9766 75.1582 28.7305 74.9121 28.625C74.666 28.5195 74.3467 28.7305 73.9541 29.2578C73.5615 29.7852 73.3359 30.1279 73.2773 30.2861C73.3477 30.4795 73.5498 30.6201 73.8838 30.708ZM80.8535 26.8584C81.3633 26.9053 81.6973 27.2451 81.8555 27.8779C81.8789 28.1006 81.8818 28.3027 81.8643 28.4844C81.7588 29.6973 81.0938 31.1885 79.8691 32.958C79.4766 33.5205 78.7734 34.2646 77.7598 35.1904C76.7227 36.1338 76.0576 36.6465 75.7646 36.7285L75.6328 36.7197C75.416 36.7021 75.2432 36.5498 75.1143 36.2627C75.0732 36.1865 75.0586 36.0898 75.0703 35.9727L75.0791 35.9375C75.1084 35.6035 75.3311 35.3105 75.7471 35.0586C76.1924 34.6777 76.6758 34.2383 77.1973 33.7402C77.9355 33.0371 78.4541 32.4541 78.7529 31.9912C77.9854 31.6631 77.6338 31.1328 77.6982 30.4004C77.7744 29.5801 78.3545 28.5898 79.4385 27.4297C79.9365 27.0078 80.4082 26.8174 80.8535 26.8584ZM79.1396 30.5498L79.4736 30.7344C79.626 30.6289 79.8721 30.1426 80.2119 29.2754L80.3789 28.5723C79.8457 29.0938 79.4561 29.668 79.21 30.2949L79.1396 30.5498ZM86.373 26.9111C86.6309 26.9111 86.833 27.043 86.9795 27.3066C87.0205 27.3887 87.041 27.4795 87.041 27.5791V27.6055C87.041 27.7578 86.9531 27.96 86.7773 28.2119C86.4551 28.7568 86.1064 29.3076 85.7314 29.8643C85.4912 30.2861 85.1074 30.8076 84.5801 31.4287C83.6367 32.665 82.4766 34.0566 81.0996 35.6035C80.4902 36.2715 79.9482 36.8545 79.4736 37.3525C79.251 37.6045 79.1016 37.7305 79.0254 37.7305C78.9551 37.7656 78.8643 37.7832 78.7529 37.7832C78.4834 37.7832 78.2783 37.6367 78.1377 37.3438C78.1084 37.2676 78.0938 37.1973 78.0938 37.1328V37.0801C78.0938 36.8691 78.2227 36.6553 78.4805 36.4385C78.4805 36.4209 78.9756 35.9287 79.9658 34.9619C81.0088 33.9131 81.665 33.2129 81.9346 32.8613C82.7021 31.959 83.3525 31.1094 83.8857 30.3125C84.5654 29.293 85.207 28.25 85.8105 27.1836C85.957 27.002 86.1445 26.9111 86.373 26.9111ZM86.7246 19.7041C87.1523 19.7041 87.5156 19.9854 87.8145 20.5479V20.7236C87.8145 21.0107 87.5566 21.21 87.041 21.3213H86.8652C86.4199 21.3213 86.1504 20.9814 86.0566 20.3018C86.0566 19.9619 86.2793 19.7627 86.7246 19.7041ZM91.1191 26.9111C91.377 26.9111 91.5791 27.043 91.7256 27.3066C91.7666 27.3887 91.7871 27.4795 91.7871 27.5791V27.6055C91.7871 27.7578 91.6992 27.96 91.5234 28.2119C91.2012 28.7568 90.8525 29.3076 90.4775 29.8643C90.2373 30.2861 89.8535 30.8076 89.3262 31.4287C88.3828 32.665 87.2227 34.0566 85.8457 35.6035C85.2363 36.2715 84.6943 36.8545 84.2197 37.3525C83.9971 37.6045 83.8477 37.7305 83.7715 37.7305C83.7012 37.7656 83.6104 37.7832 83.499 37.7832C83.2295 37.7832 83.0244 37.6367 82.8838 37.3438C82.8545 37.2676 82.8398 37.1973 82.8398 37.1328V37.0801C82.8398 36.8691 82.9688 36.6553 83.2266 36.4385C83.2266 36.4209 83.7217 35.9287 84.7119 34.9619C85.7549 33.9131 86.4111 33.2129 86.6807 32.8613C87.4482 31.959 88.0986 31.1094 88.6318 30.3125C89.3115 29.293 89.9531 28.25 90.5566 27.1836C90.7031 27.002 90.8906 26.9111 91.1191 26.9111ZM108.741 20.9873C110.505 20.9873 111.589 21.2744 111.993 21.8486C112.087 21.9951 112.134 22.1475 112.134 22.3057V22.3936C112.134 22.792 111.858 23.1641 111.308 23.5098L111.105 23.5361H111.035C110.725 23.5361 110.511 23.3486 110.394 22.9736V22.8066C110.394 22.7598 110.438 22.6748 110.525 22.5518V22.5254C109.934 22.4199 109.307 22.3672 108.645 22.3672C105.615 22.3672 102.691 23.1084 99.873 24.5908C99.1641 24.9541 98.4434 25.4434 97.7109 26.0586C96.7852 26.9551 96.3223 27.749 96.3223 28.4404V28.5459C96.3223 29.4365 96.958 30.2773 98.2295 31.0684C98.7686 31.4199 99.7881 31.7891 101.288 32.1758C103.228 32.6445 105.299 32.8789 107.502 32.8789C109.699 32.8789 111.905 32.6621 114.12 32.2285C115.292 31.9238 116.244 31.5898 116.977 31.2266C118.184 30.5879 118.787 29.9814 118.787 29.4072C118.787 28.8799 118.052 28.1182 116.581 27.1221C116.124 26.8115 115.734 26.4775 115.412 26.1201C115.148 25.8096 115.017 25.502 115.017 25.1973V25.1709C115.017 24.4561 115.84 23.9287 117.486 23.5889C119.268 23.0967 120.583 22.8506 121.433 22.8506H121.749C122.212 22.8506 122.493 23.0234 122.593 23.3691L122.61 23.5361V23.5537C122.61 23.9053 122.423 24.1309 122.048 24.2305L121.951 24.248L121.503 24.2129C120.431 24.2129 118.995 24.5059 117.196 25.0918C116.88 25.2559 116.722 25.376 116.722 25.4521C116.757 25.5283 117.009 25.7217 117.478 26.0322C119.271 27.1162 120.167 28.1855 120.167 29.2402V29.3984C120.167 30.6758 119.177 31.7188 117.196 32.5273C116.646 32.7676 115.731 33.0283 114.454 33.3096C112.397 33.6963 110.355 33.8896 108.328 33.8896H107.924C104.396 33.8896 101.191 33.3184 98.3086 32.1758C96.2109 31.2324 95.1621 30.0078 95.1621 28.502V28.335C95.1621 27.1982 95.7832 26.0381 97.0254 24.8545C97.6348 24.3389 98.1943 23.9434 98.7041 23.668C101.833 21.8809 105.179 20.9873 108.741 20.9873ZM127.295 26.8584C127.559 26.8584 127.764 26.9902 127.91 27.2539C127.951 27.3418 127.972 27.4355 127.972 27.5352V27.5615C127.972 27.7139 127.893 27.9922 127.734 28.3965C127.576 28.8008 127.424 29.1611 127.277 29.4775C127.137 29.7939 127.113 30.0518 127.207 30.251C127.301 30.4502 127.468 30.5879 127.708 30.6641C127.954 30.7344 128.089 30.9512 128.112 31.3145C128.112 31.6016 127.966 31.8125 127.673 31.9473C127.591 31.9707 127.518 31.9824 127.453 31.9824H127.365C126.656 31.9355 126.252 31.6309 126.152 31.0684C125.197 32.498 123.952 34.0332 122.417 35.6738C121.796 36.3535 121.245 36.9482 120.765 37.458C120.536 37.71 120.384 37.8359 120.308 37.8359C120.237 37.877 120.146 37.8975 120.035 37.8975C119.76 37.8975 119.552 37.748 119.411 37.4492C119.376 37.3672 119.358 37.2939 119.358 37.2295V37.1768C119.358 36.9658 119.49 36.749 119.754 36.5264C119.754 36.5088 120.258 36.0078 121.266 35.0234C122.326 33.957 122.991 33.2451 123.261 32.8877C124.04 31.9736 124.702 31.1123 125.247 30.3037C125.874 29.3311 126.29 28.4961 126.495 27.7988C126.706 27.0957 126.973 26.7822 127.295 26.8584ZM130.248 29.3369C130.195 29.5068 130.175 29.7412 130.187 30.04C130.198 30.333 130.406 30.5059 130.811 30.5586C131.18 30.5293 131.414 30.7432 131.514 31.2002V31.3584C131.42 31.7861 131.177 32 130.784 32C129.817 32.0059 129.284 31.6484 129.185 30.9277C128.927 31.3262 128.66 31.6045 128.385 31.7627C128.109 31.9209 127.77 32.0088 127.365 32.0264C126.844 31.9443 126.601 31.6865 126.636 31.2529C126.665 30.8193 126.899 30.5674 127.339 30.4971C128.03 30.4971 128.558 29.9521 128.921 28.8623C129.29 27.7725 129.577 27.1191 129.782 26.9023C129.987 26.6855 130.216 26.6152 130.468 26.6914C130.954 26.9375 131.024 27.4121 130.679 28.1152C130.444 28.7539 130.301 29.1611 130.248 29.3369ZM130.749 35.208C130.884 35.208 130.983 35.29 131.048 35.4541L130.898 36.0518C130.863 36.2568 129.727 36.5264 127.488 36.8604H127.436C127.066 36.8604 126.882 36.708 126.882 36.4033C126.882 36.0225 127.09 35.7646 127.506 35.6299C128.086 35.4893 129.167 35.3486 130.749 35.208ZM144.012 14.8965C144.34 14.8965 144.565 15.0811 144.688 15.4502V15.6348C144.688 15.8633 144.393 16.2529 143.801 16.8037C140.367 19.1123 137.423 20.4248 134.968 20.7412C134.88 20.7822 134.411 20.8643 133.562 20.9873C133.257 20.9873 133.061 20.7822 132.973 20.3721V20.2227C132.973 20.0059 133.137 19.8008 133.465 19.6074C133.682 18.9863 134.358 18.1045 135.495 16.9619C136.72 15.7314 137.561 15.1162 138.018 15.1162H138.202C138.536 15.1162 138.832 15.3828 139.09 15.916L139.116 16.1621V16.2588C139.116 16.6396 138.545 17.3047 137.402 18.2539C136.857 18.6406 136.427 18.834 136.11 18.834H136.049C135.879 18.834 135.653 18.7314 135.372 18.5264H135.337C134.769 19.0771 134.461 19.4053 134.414 19.5107H134.449C135.123 19.5107 136.415 19.1387 138.325 18.3945C140.235 17.6445 142.008 16.5195 143.643 15.0195L144.012 14.8965ZM133.975 28.8271C133.951 28.9971 133.969 29.2988 134.027 29.7324C134.086 30.1602 134.229 30.418 134.458 30.5059C134.692 30.5938 134.851 30.7139 134.933 30.8662C135.015 31.0186 135.041 31.2002 135.012 31.4111C134.982 31.6221 134.88 31.7861 134.704 31.9033C134.528 32.0205 134.297 32.0117 134.01 31.877C133.729 31.7422 133.45 31.4639 133.175 31.042C132.905 30.6143 132.82 30.0752 132.92 29.4248C133.02 28.7686 133.225 28.4609 133.535 28.502C133.852 28.543 133.998 28.6514 133.975 28.8271ZM133.192 25.0566C133.233 24.2598 133.354 23.7646 133.553 23.5713C133.758 23.3721 133.969 23.3604 134.186 23.5361C134.402 23.7061 134.499 24.1777 134.476 24.9512C134.452 25.7246 134.396 26.6504 134.309 27.7285C134.221 28.8008 133.928 29.7646 133.43 30.6201C132.938 31.4697 132.026 31.9297 130.696 32C130.198 31.9531 129.949 31.748 129.949 31.3848V31.1826C129.949 30.7783 130.198 30.5762 130.696 30.5762C131.587 30.5762 132.19 30.1953 132.507 29.4336C132.829 28.666 133.014 27.9424 133.061 27.2627C133.113 26.583 133.157 25.8477 133.192 25.0566ZM137.139 29.3369C137.086 29.5068 137.065 29.7412 137.077 30.04C137.089 30.333 137.297 30.5059 137.701 30.5586C138.07 30.5293 138.305 30.7432 138.404 31.2002V31.3584C138.311 31.7861 138.067 32 137.675 32C136.708 32.0059 136.175 31.6484 136.075 30.9277C135.817 31.3262 135.551 31.6045 135.275 31.7627C135 31.9209 134.66 32.0088 134.256 32.0264C133.734 31.9443 133.491 31.6865 133.526 31.2529C133.556 30.8193 133.79 30.5674 134.229 30.4971C134.921 30.4971 135.448 29.9521 135.812 28.8623C136.181 27.7725 136.468 27.1191 136.673 26.9023C136.878 26.6855 137.106 26.6152 137.358 26.6914C137.845 26.9375 137.915 27.4121 137.569 28.1152C137.335 28.7539 137.191 29.1611 137.139 29.3369ZM137.64 35.208C137.774 35.208 137.874 35.29 137.938 35.4541L137.789 36.0518C137.754 36.2568 136.617 36.5264 134.379 36.8604H134.326C133.957 36.8604 133.772 36.708 133.772 36.4033C133.772 36.0225 133.98 35.7646 134.396 35.6299C134.977 35.4893 136.058 35.3486 137.64 35.208ZM139.67 31.5781C139.031 31.9238 138.325 32.0615 137.552 31.9912C137.06 31.9385 136.828 31.71 136.857 31.3057C136.887 30.8955 137.109 30.6582 137.525 30.5938C138.521 30.5762 139.248 30.3623 139.705 29.9521C140.162 29.542 140.446 28.9473 140.558 28.168C140.675 27.3887 140.892 26.8994 141.208 26.7002C141.208 26.665 141.296 26.6445 141.472 26.6387C142.099 26.7617 142.301 27.2334 142.078 28.0537C141.85 29.1318 141.551 29.9023 141.182 30.3652C140.812 30.8223 140.309 31.2266 139.67 31.5781ZM139.547 36.2627C139.975 36.2627 140.338 36.5439 140.637 37.1064V37.2822C140.637 37.5693 140.379 37.7686 139.863 37.8799H139.688C139.242 37.8799 138.973 37.54 138.879 36.8604C138.879 36.5146 139.102 36.3154 139.547 36.2627ZM142.579 33.9951C142.784 33.9951 142.937 34.0771 143.036 34.2412L142.808 34.8389C142.755 35.0381 141.026 35.3076 137.622 35.6475H137.552C136.989 35.6475 136.708 35.4951 136.708 35.1904C136.708 34.8037 137.024 34.5459 137.657 34.417C138.542 34.2764 140.183 34.1357 142.579 33.9951Z" fill="#024C80"/>
<path d="M184.866 32.5981C186.866 31.4434 186.866 28.5566 184.866 27.4019L177 22.8605V37.1395L184.866 32.5981Z" fill="white"/>
</g>
<defs>
<filter id="filter0_ddd_1_321" x="0" y="0" width="203.366" height="70" filterUnits="userSpaceOnUse" color-interpolation-filters="sRGB">
<feFlood flood-opacity="0" result="BackgroundImageFix"/>
<feColorMatrix in="SourceAlpha" type="matrix" values="0 0 0 0 0 0 0 0 0 0 0 0 0 0 0 0 0 0 127 0" result="hardAlpha"/>
<feOffset dy="5"/>
<feGaussianBlur stdDeviation="7"/>
<feColorMatrix type="matrix" values="0 0 0 0 0.0323264 0 0 0 0 0.0598209 0 0 0 0 0.204167 0 0 0 0.04 0"/>
<feBlend mode="normal" in2="BackgroundImageFix" result="effect1_dropShadow_1_321"/>
<feColorMatrix in="SourceAlpha" type="matrix" values="0 0 0 0 0 0 0 0 0 0 0 0 0 0 0 0 0 0 127 0" result="hardAlpha"/>
<feOffset dy="1"/>
<feGaussianBlur stdDeviation="0.5"/>
<feComposite in2="hardAlpha" operator="out"/>
<feColorMatrix type="matrix" values="0 0 0 0 0.090196 0 0 0 0 0.0588235 0 0 0 0 0.286275 0 0 0 0.04 0"/>
<feBlend mode="normal" in2="effect1_dropShadow_1_321" result="effect2_dropShadow_1_321"/>
<feColorMatrix in="SourceAlpha" type="matrix" values="0 0 0 0 0 0 0 0 0 0 0 0 0 0 0 0 0 0 127 0" result="hardAlpha"/>
<feOffset/>
<feGaussianBlur stdDeviation="0.5"/>
<feComposite in2="hardAlpha" operator="out"/>
<feColorMatrix type="matrix" values="0 0 0 0 0.090196 0 0 0 0 0.0588235 0 0 0 0 0.286275 0 0 0 0.03 0"/>
<feBlend mode="normal" in2="effect2_dropShadow_1_321" result="effect3_dropShadow_1_321"/>
<feBlend mode="normal" in="SourceGraphic" in2="effect3_dropShadow_1_321" result="shape"/>
</filter>
</defs>
</svg>
