<svg width="206" height="70" viewBox="0 0 206 70" fill="none" xmlns="http://www.w3.org/2000/svg">
<g filter="url(#filter0_ddd_1_320)">
<path d="M15.5 32.5981C13.5 31.4434 13.5 28.5566 15.5 27.4019L23.366 22.8605V37.1395L15.5 32.5981Z" fill="white"/>
<rect x="23.366" y="9" width="168" height="42" rx="10" fill="white"/>
<path d="M64.451 27.7109C65.494 27.7109 66.1766 28.0918 66.4989 28.8535C66.5867 29.082 66.6541 29.5596 66.701 30.2861C66.7362 30.4795 66.8241 30.5762 66.9647 30.5762C67.3455 30.7344 67.536 30.9482 67.536 31.2178V31.3496C67.536 31.7129 67.3221 31.9473 66.8944 32.0527H66.3934C65.9188 32.0527 65.6082 31.877 65.4617 31.5254C65.327 31.3613 65.2186 30.6992 65.1366 29.5391C65.0487 29.1992 64.8787 29.0293 64.6268 29.0293L64.4949 29.0117H64.3807C63.4608 29.0117 62.3504 29.7236 61.0496 31.1475C60.5985 31.7217 60.3348 32.1465 60.2586 32.4219H60.285L60.5926 32.3779H60.6541C61.1287 32.4482 61.366 32.6768 61.366 33.0635L61.3836 33.0898V33.1074C61.3836 33.6641 60.9442 33.9424 60.0653 33.9424C59.368 33.9424 58.9344 33.6436 58.7645 33.0459L58.7381 32.8174V32.624C58.7381 31.8037 59.5233 30.6787 61.0936 29.249C62.3416 28.2236 63.4608 27.7109 64.451 27.7109ZM70.7791 27.0166H70.8231C71.1981 27.0166 71.5086 27.2012 71.7547 27.5703C72.0067 27.9395 72.1209 28.4756 72.0975 29.1787C72.0799 29.876 71.8866 30.5205 71.5174 31.1123C71.1483 31.7041 70.5535 32.0088 69.7332 32.0264C69.0067 31.9678 68.5057 31.6689 68.2303 31.1299C67.6912 31.7744 67.1961 32.0615 66.7449 31.9912C66.3758 31.8916 66.1854 31.6836 66.1737 31.3672C66.1561 31.0449 66.241 30.8252 66.4285 30.708C66.616 30.585 66.8182 30.5117 67.035 30.4883C67.2576 30.459 67.5008 30.2803 67.7645 29.9521C68.0282 29.624 68.4383 29.0527 68.9949 28.2383C69.5516 27.4238 70.1463 27.0166 70.7791 27.0166ZM69.6541 30.708C69.9881 30.7959 70.3133 30.6904 70.6297 30.3916C70.952 30.0869 71.1014 29.7441 71.078 29.3633C71.0604 28.9766 70.9285 28.7305 70.6824 28.625C70.4364 28.5195 70.117 28.7305 69.7244 29.2578C69.3319 29.7852 69.1063 30.1279 69.0477 30.2861C69.118 30.4795 69.3201 30.6201 69.6541 30.708ZM76.6239 26.8584C77.1336 26.9053 77.4676 27.2451 77.6258 27.8779C77.6492 28.1006 77.6522 28.3027 77.6346 28.4844C77.5291 29.6973 76.8641 31.1885 75.6395 32.958C75.2469 33.5205 74.5438 34.2646 73.5301 35.1904C72.493 36.1338 71.828 36.6465 71.535 36.7285L71.4032 36.7197C71.1864 36.7021 71.0135 36.5498 70.8846 36.2627C70.8436 36.1865 70.8289 36.0898 70.8407 35.9727L70.8494 35.9375C70.8787 35.6035 71.1014 35.3105 71.5174 35.0586C71.9627 34.6777 72.4461 34.2383 72.9676 33.7402C73.7059 33.0371 74.2244 32.4541 74.5233 31.9912C73.7557 31.6631 73.4041 31.1328 73.4686 30.4004C73.5448 29.5801 74.1248 28.5898 75.2088 27.4297C75.7069 27.0078 76.1785 26.8174 76.6239 26.8584ZM74.91 30.5498L75.244 30.7344C75.3963 30.6289 75.6424 30.1426 75.9823 29.2754L76.1492 28.5723C75.616 29.0938 75.2264 29.668 74.9803 30.2949L74.91 30.5498ZM82.1434 26.9111C82.4012 26.9111 82.6033 27.043 82.7498 27.3066C82.7908 27.3887 82.8114 27.4795 82.8114 27.5791V27.6055C82.8114 27.7578 82.7235 27.96 82.5477 28.2119C82.2254 28.7568 81.8768 29.3076 81.5018 29.8643C81.2616 30.2861 80.8778 30.8076 80.3504 31.4287C79.4071 32.665 78.2469 34.0566 76.8699 35.6035C76.2606 36.2715 75.7186 36.8545 75.244 37.3525C75.0213 37.6045 74.8719 37.7305 74.7957 37.7305C74.7254 37.7656 74.6346 37.7832 74.5233 37.7832C74.2537 37.7832 74.0487 37.6367 73.908 37.3438C73.8787 37.2676 73.8641 37.1973 73.8641 37.1328V37.0801C73.8641 36.8691 73.993 36.6553 74.2508 36.4385C74.2508 36.4209 74.7459 35.9287 75.7362 34.9619C76.7791 33.9131 77.4354 33.2129 77.7049 32.8613C78.4725 31.959 79.1229 31.1094 79.6561 30.3125C80.3358 29.293 80.9774 28.25 81.5809 27.1836C81.7274 27.002 81.9149 26.9111 82.1434 26.9111ZM82.4949 19.7041C82.9227 19.7041 83.286 19.9854 83.5848 20.5479V20.7236C83.5848 21.0107 83.327 21.21 82.8114 21.3213H82.6356C82.1903 21.3213 81.9207 20.9814 81.827 20.3018C81.827 19.9619 82.0496 19.7627 82.4949 19.7041ZM86.8895 26.9111C87.1473 26.9111 87.3494 27.043 87.4959 27.3066C87.5369 27.3887 87.5574 27.4795 87.5574 27.5791V27.6055C87.5574 27.7578 87.4696 27.96 87.2938 28.2119C86.9715 28.7568 86.6229 29.3076 86.2479 29.8643C86.0076 30.2861 85.6239 30.8076 85.0965 31.4287C84.1532 32.665 82.993 34.0566 81.616 35.6035C81.0067 36.2715 80.4647 36.8545 79.9901 37.3525C79.7674 37.6045 79.618 37.7305 79.5418 37.7305C79.4715 37.7656 79.3807 37.7832 79.2694 37.7832C78.9998 37.7832 78.7948 37.6367 78.6541 37.3438C78.6248 37.2676 78.6102 37.1973 78.6102 37.1328V37.0801C78.6102 36.8691 78.7391 36.6553 78.9969 36.4385C78.9969 36.4209 79.492 35.9287 80.4823 34.9619C81.5252 33.9131 82.1815 33.2129 82.451 32.8613C83.2186 31.959 83.869 31.1094 84.4022 30.3125C85.0819 29.293 85.7235 28.25 86.327 27.1836C86.4735 27.002 86.661 26.9111 86.8895 26.9111ZM100.697 25.6016C101.681 25.6016 102.47 26.041 103.061 26.9199C103.378 27.4473 103.536 28.0273 103.536 28.6602C103.536 29.7559 102.93 30.708 101.717 31.5166C101.142 31.8213 100.659 31.9736 100.266 31.9736H100.02C99.3875 31.9736 98.8074 31.6777 98.2801 31.0859C97.8817 30.582 97.6824 29.9697 97.6824 29.249V29.2051C97.6824 28.6074 98.0311 27.875 98.7283 27.0078V26.9902C98.0135 27.1953 97.3455 27.4355 96.7244 27.7109C95.9862 28.0449 95.2537 28.4668 94.5272 28.9766C93.1912 30.0137 92.5233 31.042 92.5233 32.0615C92.5233 33.5498 93.2 35.0059 94.5535 36.4297C94.6649 36.5527 94.7205 36.6904 94.7205 36.8428V36.9746C94.7205 37.3203 94.533 37.5518 94.158 37.6689L94.0174 37.6777C93.7537 37.6777 93.5047 37.5049 93.2703 37.1592C92.286 35.9639 91.6444 34.6807 91.3455 33.3096C91.2342 32.7354 91.1785 32.2637 91.1785 31.8945C91.1785 29.9668 92.5848 28.3174 95.3973 26.9463C97.4422 26.0498 99.2088 25.6016 100.697 25.6016ZM99.0623 29.2578V29.3633C99.0623 30.0547 99.3905 30.5234 100.047 30.7695L100.337 30.8135C100.77 30.8135 101.268 30.5146 101.831 29.917C102.188 29.4424 102.367 29.0088 102.367 28.6162C102.367 28.1357 102.08 27.667 101.506 27.21C101.277 27.0986 101.116 27.043 101.022 27.043C100.665 27.043 100.155 27.4238 99.493 28.1855C99.2059 28.6074 99.0623 28.9648 99.0623 29.2578ZM108.124 26.8584C108.388 26.8584 108.593 26.9902 108.739 27.2539C108.78 27.3418 108.801 27.4355 108.801 27.5352V27.5615C108.801 27.7139 108.722 27.9922 108.563 28.3965C108.405 28.8008 108.253 29.1611 108.106 29.4775C107.966 29.7939 107.942 30.0518 108.036 30.251C108.13 30.4502 108.297 30.5879 108.537 30.6641C108.783 30.7344 108.918 30.9512 108.941 31.3145C108.941 31.6016 108.795 31.8125 108.502 31.9473C108.42 31.9707 108.347 31.9824 108.282 31.9824H108.194C107.485 31.9355 107.081 31.6309 106.981 31.0684C106.026 32.498 104.781 34.0332 103.246 35.6738C102.625 36.3535 102.074 36.9482 101.594 37.458C101.365 37.71 101.213 37.8359 101.137 37.8359C101.066 37.877 100.975 37.8975 100.864 37.8975C100.589 37.8975 100.381 37.748 100.24 37.4492C100.205 37.3672 100.187 37.2939 100.187 37.2295V37.1768C100.187 36.9658 100.319 36.749 100.583 36.5264C100.583 36.5088 101.087 36.0078 102.095 35.0234C103.155 33.957 103.82 33.2451 104.09 32.8877C104.869 31.9736 105.531 31.1123 106.076 30.3037C106.703 29.3311 107.119 28.4961 107.324 27.7988C107.535 27.0957 107.802 26.7822 108.124 26.8584ZM112.879 25.8828H113.213C113.928 25.8828 114.332 26.3428 114.426 27.2627C114.426 29.0732 112.978 30.5645 110.084 31.7363C109.562 31.9121 108.971 32 108.308 32H108.08C107.64 31.9004 107.421 31.7041 107.421 31.4111V31.209C107.421 30.8223 107.684 30.6025 108.212 30.5498C108.78 30.5498 109.208 30.5059 109.495 30.418V30.3916C109.319 30.1221 109.231 29.8584 109.231 29.6006V29.4336C109.231 28.7246 109.911 27.7725 111.27 26.5771C111.85 26.1143 112.387 25.8828 112.879 25.8828ZM110.383 29.3018V29.4688C110.383 29.6855 110.479 29.8613 110.673 29.9961C111.206 29.7852 111.853 29.3018 112.615 28.5459C112.943 28.1123 113.107 27.7842 113.107 27.5615C113.107 27.4795 113.043 27.3916 112.914 27.2979H112.879C112.439 27.2979 111.683 27.8252 110.611 28.8799C110.459 29.0498 110.383 29.1904 110.383 29.3018ZM112.554 19.625C112.981 19.625 113.345 19.9062 113.643 20.4688V20.6445C113.643 20.9316 113.386 21.1309 112.87 21.2422H112.694C112.249 21.2422 111.979 20.9023 111.886 20.2227C111.886 19.8828 112.108 19.6836 112.554 19.625ZM122.327 24.3799C122.925 24.3799 123.912 24.9072 125.289 25.9619C125.476 26.0322 125.652 26.0674 125.816 26.0674C125.998 26.0674 126.32 25.9619 126.783 25.751C126.982 25.71 127.173 25.6895 127.354 25.6895C128.216 25.6895 128.972 25.9912 129.622 26.5947C129.704 26.7002 129.745 26.7852 129.745 26.8496V26.8936C129.745 27.292 129.499 27.582 129.007 27.7637L128.734 27.7988C128.195 27.7988 127.328 27.667 126.133 27.4033H126.027C125.517 27.4033 124.22 28.1211 122.134 29.5566C121.448 30.0078 120.575 30.749 119.514 31.7803C118.12 33.2744 117.423 34.5752 117.423 35.6826V35.9375C117.423 37.4961 118.055 38.624 119.321 39.3213C120.177 39.8838 121.354 40.1562 122.854 40.1387H122.898C124.287 40.0859 125.857 39.8428 127.609 39.4092C127.738 39.3389 127.803 39.2803 127.803 39.2334L127.723 39.0928V38.917C127.77 38.7236 127.855 38.627 127.978 38.627C128.547 38.9023 128.939 39.2393 129.156 39.6377L129.174 39.7432C129.162 40.1357 128.456 40.4521 127.055 40.6924C125.38 40.9619 124.07 41.0967 123.127 41.0967H122.96C121.319 41.0967 119.84 40.7773 118.521 40.1387C118.328 40.0684 117.906 39.7168 117.256 39.084C116.805 38.5215 116.529 37.9736 116.43 37.4404C116.33 37.042 116.28 36.5967 116.28 36.1045V35.7881C116.28 33.5732 117.845 31.3262 120.973 29.0469C122.093 28.1797 123.071 27.5029 123.909 27.0166C124.05 26.9639 124.12 26.8818 124.12 26.7705C123.979 26.4365 123.522 26.0967 122.749 25.751L122.45 25.707H122.389C121.89 25.7949 121.249 26.3721 120.464 27.4385C119.907 28.5283 119.555 29.1289 119.409 29.2402H119.321C119.263 29.2402 119.227 29.0908 119.216 28.792V28.5195C119.216 27.6523 119.336 27.0898 119.576 26.832C119.769 26.3984 120.347 25.7363 121.307 24.8457C121.682 24.5352 122.022 24.3799 122.327 24.3799ZM137.216 30.5059C137.725 30.623 137.948 30.9277 137.884 31.4199C137.819 31.9121 137.597 32.1143 137.216 32.0264C136.372 31.8975 135.801 31.4639 135.502 30.7256C135.068 31.4697 134.602 32.1436 134.104 32.7471C133.419 33.5615 132.733 33.9688 132.048 33.9688H131.889C131.491 33.9688 131.151 33.8281 130.87 33.5469C130.501 34.168 130.176 34.6279 129.894 34.9268C129.613 35.2256 129.358 35.375 129.13 35.375C128.784 35.375 128.547 35.1846 128.418 34.8037L128.4 34.6631V34.5928C128.4 34.3584 128.547 34.1357 128.84 33.9248C129.39 33.3857 129.745 32.9785 129.903 32.7031C130.682 31.7539 131.21 30.6816 131.485 29.4863C131.79 28.1797 131.989 27.1543 132.083 26.4102C132.241 25.9824 132.487 25.7686 132.821 25.7686C133.202 25.7686 133.445 25.959 133.551 26.3398L133.568 26.498C133.398 27.8516 133.12 29.1875 132.733 30.5059L131.977 32.4746V32.5186L132.18 32.5449C132.865 32.5449 133.609 31.7012 134.412 30.0137C134.892 28.877 135.177 27.8984 135.264 27.0781C135.358 26.252 135.417 25.4697 135.44 24.7314C135.464 23.9932 135.707 23.624 136.17 23.624H136.31C136.592 23.624 136.82 23.7939 136.996 24.1338C137.037 24.2275 137.057 24.3242 137.057 24.4238V24.5645C137.057 25.1035 136.867 26.5361 136.486 28.8623L136.469 29.0996C136.527 29.8203 136.776 30.2891 137.216 30.5059ZM145.539 26.1113C146.365 26.1113 146.901 26.4863 147.147 27.2363C147.206 27.4297 147.235 27.6113 147.235 27.7812C147.235 28.8477 146.391 29.9229 144.704 31.0068C143.514 31.7217 142.214 32.0791 140.802 32.0791C140.579 32.0791 140.301 32.0264 139.967 31.9209L139.167 33.248C139.138 33.2773 139.105 33.292 139.07 33.292C138.935 33.292 138.806 33.1045 138.683 32.7295L138.648 32.457C138.66 32.1992 138.739 31.9268 138.886 31.6396C138.85 31.6396 138.76 31.5957 138.613 31.5078C138.355 31.8359 138.021 32 137.611 32L137.304 32.0088H137.128C136.811 32.0088 136.6 31.8594 136.495 31.5605C136.472 31.4902 136.46 31.4316 136.46 31.3848V31.2969C136.46 31.0918 136.609 30.9219 136.908 30.7871C137.224 30.7578 137.383 30.7227 137.383 30.6816C137.482 30.623 137.55 30.5059 137.585 30.3301C137.62 30.1484 137.667 29.835 137.725 29.3896C137.79 28.9443 137.898 28.5371 138.051 28.168C138.209 27.7988 138.464 27.6055 138.815 27.5879C139.167 27.5645 139.401 27.7168 139.518 28.0449C139.636 28.3672 139.624 28.7188 139.483 29.0996C139.348 29.4805 139.208 29.8145 139.061 30.1016C139.12 30.2539 139.222 30.3652 139.369 30.4355L139.518 30.4707C139.741 30.1016 140.169 29.5684 140.802 28.8711C141.352 28.3086 141.795 27.8955 142.129 27.6318C143.435 26.6182 144.572 26.1113 145.539 26.1113ZM140.67 30.752V30.7607L140.96 30.7695C142.483 30.7695 143.825 30.21 144.985 29.0908C145.419 28.7158 145.694 28.376 145.811 28.0713C145.847 27.9717 145.864 27.8867 145.864 27.8164V27.7549C145.864 27.5732 145.782 27.4824 145.618 27.4824H145.513C144.774 27.4824 143.582 28.1475 141.935 29.4775C141.355 29.9639 140.933 30.3887 140.67 30.752ZM151.296 22.2002C151.641 22.2002 151.87 22.3877 151.981 22.7627L151.99 22.8857C151.99 23.3369 151.817 25.3555 151.472 28.9414L151.243 31.9297C151.085 32.2812 150.862 32.457 150.575 32.457H150.566C150.097 32.4043 149.863 32.1875 149.863 31.8066C150.244 28.918 150.434 27.0957 150.434 26.3398C150.54 24.8398 150.593 23.6885 150.593 22.8857C150.593 22.54 150.801 22.3115 151.217 22.2002H151.296Z" fill="#024C80"/>
</g>
<defs>
<filter id="filter0_ddd_1_320" x="-3" y="0" width="208.366" height="70" filterUnits="userSpaceOnUse" color-interpolation-filters="sRGB">
<feFlood flood-opacity="0" result="BackgroundImageFix"/>
<feColorMatrix in="SourceAlpha" type="matrix" values="0 0 0 0 0 0 0 0 0 0 0 0 0 0 0 0 0 0 127 0" result="hardAlpha"/>
<feOffset dy="5"/>
<feGaussianBlur stdDeviation="7"/>
<feColorMatrix type="matrix" values="0 0 0 0 0.0323264 0 0 0 0 0.0598209 0 0 0 0 0.204167 0 0 0 0.04 0"/>
<feBlend mode="normal" in2="BackgroundImageFix" result="effect1_dropShadow_1_320"/>
<feColorMatrix in="SourceAlpha" type="matrix" values="0 0 0 0 0 0 0 0 0 0 0 0 0 0 0 0 0 0 127 0" result="hardAlpha"/>
<feOffset dy="1"/>
<feGaussianBlur stdDeviation="0.5"/>
<feComposite in2="hardAlpha" operator="out"/>
<feColorMatrix type="matrix" values="0 0 0 0 0.090196 0 0 0 0 0.0588235 0 0 0 0 0.286275 0 0 0 0.04 0"/>
<feBlend mode="normal" in2="effect1_dropShadow_1_320" result="effect2_dropShadow_1_320"/>
<feColorMatrix in="SourceAlpha" type="matrix" values="0 0 0 0 0 0 0 0 0 0 0 0 0 0 0 0 0 0 127 0" result="hardAlpha"/>
<feOffset/>
<feGaussianBlur stdDeviation="0.5"/>
<feComposite in2="hardAlpha" operator="out"/>
<feColorMatrix type="matrix" values="0 0 0 0 0.090196 0 0 0 0 0.0588235 0 0 0 0 0.286275 0 0 0 0.03 0"/>
<feBlend mode="normal" in2="effect2_dropShadow_1_320" result="effect3_dropShadow_1_320"/>
<feBlend mode="normal" in="SourceGraphic" in2="effect3_dropShadow_1_320" result="shape"/>
</filter>
</defs>
</svg>
