<svg width="22" height="28" viewBox="0 0 22 28" fill="none" xmlns="http://www.w3.org/2000/svg">
<path fill-rule="evenodd" clip-rule="evenodd" d="M21.4532 22.2575C21.4532 26.6521 15.4265 27.1601 10.8945 27.1601L10.5702 27.1598C7.6828 27.1528 0.333191 26.9705 0.333191 22.2308C0.333191 17.9258 6.11766 17.3505 10.6152 17.3288L11.2188 17.3284C14.1061 17.3354 21.4532 17.5177 21.4532 22.2575ZM10.8945 19.3281C5.21319 19.3281 2.33319 20.3041 2.33319 22.2308C2.33319 24.1748 5.21319 25.1601 10.8945 25.1601C16.5745 25.1601 19.4532 24.1841 19.4532 22.2575C19.4532 20.3135 16.5745 19.3281 10.8945 19.3281ZM10.8945 0.66626C14.7985 0.66626 17.9732 3.84226 17.9732 7.74626C17.9732 11.6503 14.7985 14.8249 10.8945 14.8249H10.8519C6.95586 14.8129 3.79986 11.6356 3.81315 7.74226C3.81315 3.84226 6.98919 0.66626 10.8945 0.66626ZM10.8945 2.57026C8.03986 2.57026 5.71716 4.89159 5.71716 7.74626C5.70786 10.5916 8.01319 12.9116 10.8559 12.9223L10.8945 13.8743V12.9223C13.7479 12.9223 16.0692 10.5996 16.0692 7.74626C16.0692 4.89159 13.7479 2.57026 10.8945 2.57026Z" fill="white"/>
</svg>
