<svg width="26" height="26" viewBox="0 0 26 26" fill="none" xmlns="http://www.w3.org/2000/svg">
<path fill-rule="evenodd" clip-rule="evenodd" d="M10.3463 16.07L10.4951 16.07L10.8251 16.0709C13.6275 16.0859 20.1925 16.3407 20.1925 20.6712C20.1925 24.6864 14.8008 25.2229 10.6068 25.2431L9.86742 25.2428C7.065 25.2278 0.500015 24.9732 0.500015 20.6437C0.500015 16.5437 6.11876 16.07 10.3463 16.07ZM10.3463 17.945C5.05752 17.945 2.37502 18.8538 2.37502 20.6437C2.37502 22.4513 5.05752 23.3687 10.3463 23.3687C15.635 23.3687 18.3175 22.46 18.3175 20.6712C18.3175 18.8612 15.635 17.945 10.3463 17.945ZM22.0051 7.89838C22.5226 7.89838 22.9426 8.31838 22.9426 8.83588L22.9425 10.4037L24.5625 10.4047C25.08 10.4047 25.5 10.8248 25.5 11.3423C25.5 11.8598 25.08 12.2798 24.5625 12.2798L22.9425 12.2788L22.9426 13.8496C22.9426 14.3671 22.5226 14.7871 22.0051 14.7871C21.4876 14.7871 21.0676 14.3671 21.0676 13.8496L21.0675 12.2788L19.45 12.2798C18.9325 12.2798 18.5125 11.8598 18.5125 11.3423C18.5125 10.8248 18.9325 10.4047 19.45 10.4047L21.0675 10.4037L21.0676 8.83588C21.0676 8.31838 21.4876 7.89838 22.0051 7.89838ZM10.3463 0.5C14.0125 0.5 16.9938 3.4825 16.9938 7.1475C16.9938 10.8125 14.0125 13.795 10.3463 13.795H10.3075C8.53377 13.7887 6.87126 13.0925 5.62502 11.8375C4.37752 10.5812 3.69377 8.91375 3.69997 7.14375C3.69997 3.4825 6.68127 0.5 10.3463 0.5ZM10.3463 2.375C7.71626 2.375 5.57498 4.51625 5.57498 7.1475C5.57002 8.42125 6.06002 9.615 6.95377 10.5162C7.84877 11.4162 9.04127 11.915 10.3113 11.92L10.3463 12.8462V11.92C12.9775 11.92 15.1188 9.77875 15.1188 7.1475C15.1188 4.51625 12.9775 2.375 10.3463 2.375Z" fill="#024C80"/>
</svg>
